<?xml version="1.0" encoding="utf-8"?>
<!-- Generator: Adobe Illustrator 24.2.3, SVG Export Plug-In . SVG Version: 6.00 Build 0)  -->
<svg version="1.1" id="Layer_1" xmlns="http://www.w3.org/2000/svg" xmlns:xlink="http://www.w3.org/1999/xlink" x="0px" y="0px"
	 viewBox="0 0 220.3399 266.9709" enable-background="new 0 0 220.3399 266.9709" xml:space="preserve">
<g>
	<path d="M23.116,105.5118c6.752-4.4946,28.9163-10.1319,42.6804-14.4672c4.9203-1.5497,11.8661-4.392,18.7606-7.403
		c5.899-5.6353,10.9289-9.1063,15.5552-10.7161c0.7098-1.9404,2.5684-3.2897,4.6796-3.2897c0.3408,0,0.6826,0.0352,1.0176,0.1045
		c1.2108,0.248,2.2556,0.9382,2.9894,1.928h0.2686l6.4191-2.0218c-5.3591-2.4672-9.7473-6.7364-12.416-12.0463
		c-6.6035,1.0721-32.6906,5.4266-44.6576,9.1959c-13.7641,4.3352-35.1823,12.4229-43.2495,12.598c0,0-16.9777,1.8212-15.0035,8.3045
		c1.9735,6.4813,3.9899,13.1031,5.964,19.5864C8.0972,113.7663,23.116,105.5118,23.116,105.5118z"/>
	<path d="M151.9833,45.662c0,0.0026,0.0002,0.0051,0.0002,0.0076c0,5.0031-1.3811,9.6839-3.7747,13.6705l33.4574-10.538
		c4.4232-1.3932,7.8071-0.6901,10.3444,0.827c4.8062,2.8773,6.5699,8.6642,6.5699,8.6642
		c1.5626,5.1319-0.9903,11.5569-0.9903,11.5569l3.0178,9.9106l4.3448,2.3359l13.025-4.1024l2.3621-4.5771l-2.982-9.7932
		c0,0-4.8745-4.0856-6.4371-9.2175c-1.5612-5.1271,0.7115-10.8289,0.7115-10.8289s-0.0098-0.0444-0.0262-0.1204
		c-0.5704-2.624-11.4262-49.7351-54.1027-42.7519c0,0,25.0309,4.8905,30.5694,23.0794c2.2722,7.462-6.869,10.3412-10.5248,11.4927
		l-22.6728,7.1412C154.3942,43.8538,153.3394,45.0243,151.9833,45.662z"/>
	<path d="M148.9274,46.1886h-45.6249c0.2724,12.5798,10.3781,22.6954,22.8124,22.6954
		C138.5512,68.884,148.6552,58.7684,148.9274,46.1886z M111.8769,54.299h28.4762c-2.9507,4.861-8.2209,8.118-14.2381,8.118
		S114.8276,59.16,111.8769,54.299z"/>
	<path d="M98.0464,97.6648l-1.278,6.2455c-0.2217,1.083,0.4756,2.1396,1.5576,2.3604c0.1185,0.0247,0.2358,0.033,0.3522,0.0358
		v1.0562l0.2614-1.0693c0.8427-0.0902,1.5682-0.7064,1.7468-1.5803l6.0723-29.6753c0.2217-1.082-0.4756-2.1387-1.5576-2.3604
		c-1.0889-0.2256-2.1396,0.4766-2.3604,1.5586l-0.2405,1.1755c-5.7308,1.4455-12.3303,6.3484-20.8246,15.4114
		c-0.0261,0.0278-0.051,0.0532-0.0771,0.0811c-1.486,1.5876-2.8979,3.1659-4.2032,4.6659l-2.4865-4.5831
		c-3.0701,1.2131-5.9182,2.2607-8.3123,3.0148c-2.1899,0.6898-4.5831,1.4086-7.0884,2.1503l8.9036,16.4109
		c0.4885,1.5302,1.4183,2.9321,2.7668,3.9869c1.4751,1.1537,3.2158,1.7129,4.9425,1.7119c2.4331,0,4.8405-1.1083,6.4385-3.2213
		c2.7234-3.601,5.7007-7.1633,8.6251-10.4011C93.6303,102.042,95.9319,99.6712,98.0464,97.6648z"/>
	<path d="M149.6282,75.4032l-0.2388-1.1672c-0.2207-1.082-1.2754-1.7837-2.3604-1.5586c-1.082,0.2217-1.7793,1.2783-1.5576,2.3604
		l6.0723,29.6753c0.1786,0.874,0.9042,1.4901,1.7471,1.5803l0.2614,1.0693v-1.0562c0.1163-0.0029,0.2335-0.011,0.3519-0.0358
		c0.4398-0.0897,0.8107-0.3219,1.0875-0.6335c1.6177,5.0981,3.0192,11.8583,3.8604,20.7719
		c0.3824,4.0464,2.3004,7.514,5.5469,10.0264c4.6047,3.5643,11.3978,4.52,17.3597,4.52c4.9227,0.0005,9.2778-0.6519,11.3651-1.0252
		c4.4135-0.7899,1.603-17.0446-2.8135-16.2582c-1.4375,0.2531-2.9463,0.4398-4.4427,0.5627l0.9733-5.2344
		c0.0272-1.2766-0.9773-2.3436-2.2325-2.371c-1.2552-0.0277-2.3044,0.994-2.3311,2.2706l-1.0046,5.3245l0.0297,0.1879
		c-2.7511-0.0179-5.1089-0.2814-6.4102-0.7776c-2.1953-21.6371-7.9482-36.3986-17.1052-43.8864
		C154.8441,77.3415,152.0046,76.0689,149.6282,75.4032z"/>
	<path d="M102.582,43.6884h0.4023h46.2616h0.4005c1.668,0,3.0176-1.3496,3.0176-3.0176c0-1.666-1.3496-3.0186-3.0176-3.0186h-0.4157
		c-0.1978-7.6862-4.1461-14.4364-10.0804-18.4965v1.8412c0,1.3184-1.0683,2.3887-2.3867,2.3887
		c-1.3183,0-2.3886-1.0703-2.3886-2.3887v-4.3442c-1.8554-0.7102-3.8232-1.1926-5.8731-1.4028v5.7471
		c0,1.3184-1.0684,2.3887-2.3867,2.3887c-1.3203,0-2.3887-1.0703-2.3887-2.3887v-5.7468c-2.0499,0.2103-4.0176,0.693-5.873,1.4033
		v4.3435c0,1.3184-1.0684,2.3887-2.3887,2.3887c-1.3184,0-2.3867-1.0703-2.3867-2.3887v-1.8398
		c-5.9332,4.0603-9.8807,10.8098-10.0785,18.4951h-0.4175c-1.666,0-3.0156,1.3525-3.0156,3.0186
		C99.5663,42.3388,100.916,43.6884,102.582,43.6884z"/>
	<path d="M154.6746,145.6867h-26.8094v-9.9999h24.3333v-5h-24.3333v-10.3333h24.3333v-5h-24.3333v-13.4185
		c3.7769-3.2111,6.7327-16.0194,8.1868-23.5536c0.275-1.4247,0.9905-2.6592,1.967-3.6174h-23.8077
		c0.9766,0.9582,1.6921,2.1927,1.967,3.6174c1.454,7.5342,4.41,20.3425,8.1868,23.5536v13.4185h-24.3333v5h24.3333v10.3333h-24.3333
		v5h24.3333v9.9999h-16.7725c-0.2175,0.3586-0.478,0.6878-0.7811,0.9833l4.8014,15.0788c1.2697,3.9873-0.9413,8.264-4.9286,9.5336
		l-10.3568,3.2978l-6.3026,78.5973c-0.5627,7.0233,4.5785,13.1781,11.4821,13.7506c6.9031,0.5718,12.9576-4.6532,13.5204-11.677
		l7.5361-93.975h7.1037l7.5361,93.975c0.5627,7.0238,6.6172,12.2489,13.5204,11.677c6.9031-0.5725,12.0452-6.7273,11.4825-13.7506
		l-8.2996-103.4909h0.7678c1.1045,0,2-0.8955,2-2C156.6746,146.5822,155.7791,145.6867,154.6746,145.6867z"/>
	<polygon points="83.2239,131.492 78.6156,133.3105 82.9835,144.3791 87.7148,142.8726 	"/>
	<polygon points="91.2943,132.1019 86.686,133.9204 89.9392,142.1643 94.6705,140.6577 	"/>
	<path d="M105.926,168.8999c2.6777-0.8527,4.1572-3.7146,3.3046-6.3923l-4.6371-14.5629l-20.8493,6.6388l4.6371,14.5629
		c0.8526,2.6777,3.7145,4.1572,6.3923,3.3046L105.926,168.8999z M101.9916,155.1757c-1.1046-0.1062-1.9139-1.0877-1.8077-2.1923
		c0.1062-1.1045,1.0877-1.9139,2.1923-1.8077c1.1045,0.1062,1.9138,1.0876,1.8077,2.1922
		C104.0776,154.4725,103.0961,155.2818,101.9916,155.1757z"/>
	<path d="M82.7103,152.2891l21.4-6.8141c1.2982-0.4134,2.0221-1.8137,1.6088-3.1119c-0.4134-1.2982-1.8137-2.0221-3.1119-1.6088
		l-21.4,6.8142c-1.2982,0.4134-2.0221,1.8137-1.6087,3.1119C80.0118,151.9785,81.4121,152.7025,82.7103,152.2891z"/>
</g>
</svg>
