<?xml version="1.0" encoding="utf-8"?>
<!-- Generator: Adobe Illustrator 16.0.0, SVG Export Plug-In . SVG Version: 6.00 Build 0)  -->
<!DOCTYPE svg PUBLIC "-//W3C//DTD SVG 1.0//EN" "http://www.w3.org/TR/2001/REC-SVG-20010904/DTD/svg10.dtd">
<svg version="1.0" id="Layer_1" xmlns="http://www.w3.org/2000/svg" xmlns:xlink="http://www.w3.org/1999/xlink" x="0px" y="0px"
	 width="100px" height="100px" viewBox="0 0 100 100" enable-background="new 0 0 100 100" xml:space="preserve">
<path d="M89.859,43.473c-15.631-1.471-27.471,8.832-28.33,23.624l-4.863,4.859V58.333c0-1.777-0.469-3.802-1.243-5.709L89.999,18.05
	c-7.809-7.813-22.584-5.703-32.997,4.712c-5.986,5.986-9.212,13.407-9.404,20.122l-2.767-2.767C42.012,23.372,27.409,10.305,10,10
	c0.303,17.407,13.371,32.008,30.114,34.827l7.328,7.328C48.756,53.47,50,56.472,50,58.333v3.835
	c-1.872-2.236-4.095-4.323-6.687-6.14C31.247,47.579,16.334,48.074,10,57.119L50,85.13V90h6.666v-8.62l9.577-9.573
	C81.031,70.943,91.337,59.108,89.859,43.473z M17.979,17.979c9.18,2.881,16.52,10.222,19.399,19.399
	C28.198,34.499,20.859,27.158,17.979,17.979z M21.556,57.07c5.148-1.218,12.015,0.273,17.936,4.424
	c5.921,4.144,9.668,10.088,10.286,15.342L21.556,57.07z M61.715,27.476c5.111-5.114,11.615-7.773,16.895-7.468l-24.361,24.36
	C53.938,39.09,56.602,32.586,61.715,27.476z M78.629,59.395c-2.61,2.864-6.133,4.749-10.169,5.485
	c0.632-3.474,2.109-6.579,4.355-9.047c2.61-2.864,6.133-4.749,10.169-5.484C82.353,53.821,80.875,56.927,78.629,59.395z"/>
</svg>
