<svg xmlns="http://www.w3.org/2000/svg" xmlns:xlink="http://www.w3.org/1999/xlink" viewBox="0 0 64 64"><defs><style>.cls-1{fill:url(#linear-gradient);}.cls-2{fill:url(#linear-gradient-2);}.cls-3{fill:url(#linear-gradient-3);}.cls-4{fill:url(#linear-gradient-4);}.cls-5{fill:url(#linear-gradient-5);}.cls-6{fill:url(#linear-gradient-6);}.cls-7{fill:url(#linear-gradient-7);}.cls-8{fill:url(#linear-gradient-8);}.cls-9{fill:url(#linear-gradient-9);}.cls-10{fill:url(#linear-gradient-10);}.cls-11{fill:url(#linear-gradient-11);}</style><linearGradient id="linear-gradient" x1="32.09" y1="26.81" x2="42.19" y2="26.81" gradientUnits="userSpaceOnUse"><stop offset="0" stop-color="#a3a093"/><stop offset="0.55" stop-color="#bebdb7"/><stop offset="1" stop-color="#d1d1cf"/></linearGradient><linearGradient id="linear-gradient-2" x1="38.45" y1="34.5" x2="57.25" y2="34.5" gradientUnits="userSpaceOnUse"><stop offset="0" stop-color="#54595d"/><stop offset="0.39" stop-color="#646664"/><stop offset="1" stop-color="#79766d"/></linearGradient><linearGradient id="linear-gradient-3" x1="3" y1="13.31" x2="16.18" y2="13.31" xlink:href="#linear-gradient"/><linearGradient id="linear-gradient-4" x1="14.18" y1="13.31" x2="21.91" y2="13.31" gradientUnits="userSpaceOnUse"><stop offset="0" stop-color="#141c2c"/><stop offset="0.84" stop-color="#090d14"/><stop offset="1" stop-color="#070a0f"/></linearGradient><linearGradient id="linear-gradient-5" x1="28.12" y1="53.19" x2="61" y2="53.19" xlink:href="#linear-gradient-4"/><linearGradient id="linear-gradient-6" x1="34.5" y1="57.01" x2="36.5" y2="57.01" gradientUnits="userSpaceOnUse"><stop offset="0" stop-color="#849282"/><stop offset="0.6" stop-color="#5c6868"/><stop offset="1" stop-color="#46505a"/></linearGradient><linearGradient id="linear-gradient-7" x1="39" y1="57.01" x2="41" y2="57.01" xlink:href="#linear-gradient-6"/><linearGradient id="linear-gradient-8" x1="43.5" y1="57.01" x2="45.5" y2="57.01" xlink:href="#linear-gradient-6"/><linearGradient id="linear-gradient-9" x1="48" y1="57.01" x2="50" y2="57.01" xlink:href="#linear-gradient-6"/><linearGradient id="linear-gradient-10" x1="52.5" y1="57.01" x2="54.5" y2="57.01" xlink:href="#linear-gradient-6"/><linearGradient id="linear-gradient-11" x1="19.91" y1="13.31" x2="61" y2="13.31" gradientUnits="userSpaceOnUse"><stop offset="0" stop-color="#ffe500"/><stop offset="1" stop-color="#fcb415"/></linearGradient></defs><g id="Layer_5" data-name="Layer 5"><path class="cls-1" d="M41.22,30,39.5,22.13l-6.42-.51v0a1,1,0,0,0-.27,1.95c1.65.6,1.64,5.85,0,6.44a1,1,0,0,0-.68.69,1,1,0,0,0,1,1.28h8.12A1,1,0,0,0,41.22,30Z"/><path class="cls-2" d="M52.23,22.42a1,1,0,0,0-1-.8H39.45a1,1,0,0,0-.77.37,1,1,0,0,0-.21.84l5,23.75a1,1,0,0,0,1,.8h11.8a1,1,0,0,0,1-1.21Z"/><path class="cls-3" d="M15.74,8.15a1,1,0,0,0-.93-.09L10.14,10c-.9.31-.57,1.66-.62,2.36H4a1,1,0,0,0,0,2H9.52c.05.7-.28,2,.62,2.36l4.67,1.89a1,1,0,0,0,1.37-.92V9A1,1,0,0,0,15.74,8.15Z"/><rect class="cls-4" x="14.18" y="6.23" width="7.72" height="14.17" rx="1"/><path class="cls-5" d="M61,49.19v8A3.82,3.82,0,0,1,57.19,61H31.94a3.82,3.82,0,0,1-3.82-3.81v-8a3.82,3.82,0,0,1,3.82-3.81H57.19A3.82,3.82,0,0,1,61,49.19Z"/><path d="M42.26,23.62H33.08a1,1,0,0,1,0-2h9.18A1,1,0,0,1,42.26,23.62Z"/><path class="cls-6" d="M36.5,54v7h-2V54A1,1,0,0,1,36.5,54Z"/><path class="cls-7" d="M41,54v7H39V54A1,1,0,0,1,41,54Z"/><path class="cls-8" d="M45.5,54v7h-2V54A1,1,0,0,1,45.5,54Z"/><path class="cls-9" d="M50,54v7H48V54A1,1,0,0,1,50,54Z"/><path class="cls-10" d="M54.5,54v7h-2V54A1,1,0,0,1,54.5,54Z"/><path class="cls-11" d="M55.76,3H25.14a5.24,5.24,0,0,0-5.23,5.24V18.38a5.24,5.24,0,0,0,5.23,5.24H55.76A5.25,5.25,0,0,0,61,18.38V8.24A5.25,5.25,0,0,0,55.76,3ZM34.18,17.27a1,1,0,0,1-.71-1.7L40.05,9a1,1,0,0,1,1.42,1.41L34.89,17A1,1,0,0,1,34.18,17.27Zm5.16,0a1,1,0,0,1-.7-1.7L45.22,9a1,1,0,0,1,1.41,1.41L40.05,17A1,1,0,0,1,39.34,17.27Zm5.17,0a1,1,0,0,1-.71-1.7L50.38,9a1,1,0,0,1,1.41,1.41L45.21,17A1,1,0,0,1,44.51,17.27ZM57,10.4,50.38,17A1,1,0,0,1,49,17a1,1,0,0,1,0-1.41L55.54,9A1,1,0,0,1,57,10.4Z"/></g></svg>